%TF.GenerationSoftware,KiCad,Pcbnew,(5.1.10)-1*%
%TF.CreationDate,2021-07-06T16:49:45+02:00*%
%TF.ProjectId,circuitPanneauCarbOnFire,63697263-7569-4745-9061-6e6e65617543,rev?*%
%TF.SameCoordinates,Original*%
%TF.FileFunction,Legend,Top*%
%TF.FilePolarity,Positive*%
%FSLAX46Y46*%
G04 Gerber Fmt 4.6, Leading zero omitted, Abs format (unit mm)*
G04 Created by KiCad (PCBNEW (5.1.10)-1) date 2021-07-06 16:49:45*
%MOMM*%
%LPD*%
G01*
G04 APERTURE LIST*
%ADD10C,0.120000*%
%ADD11C,0.150000*%
G04 APERTURE END LIST*
D10*
%TO.C,SW1*%
X89020000Y-112900000D02*
X89020000Y-103000000D01*
X93860000Y-112900000D02*
X93860000Y-103000000D01*
X89020000Y-112900000D02*
X93860000Y-112900000D01*
X89020000Y-103000000D02*
X93860000Y-103000000D01*
X88780000Y-113140000D02*
X88780000Y-111756000D01*
X88780000Y-113140000D02*
X90163000Y-113140000D01*
X90805000Y-109980000D02*
X92075000Y-109980000D01*
X92075000Y-109980000D02*
X92075000Y-105920000D01*
X92075000Y-105920000D02*
X90805000Y-105920000D01*
X90805000Y-105920000D02*
X90805000Y-109980000D01*
X90925000Y-109980000D02*
X90925000Y-108626667D01*
X91045000Y-109980000D02*
X91045000Y-108626667D01*
X91165000Y-109980000D02*
X91165000Y-108626667D01*
X91285000Y-109980000D02*
X91285000Y-108626667D01*
X91405000Y-109980000D02*
X91405000Y-108626667D01*
X91525000Y-109980000D02*
X91525000Y-108626667D01*
X91645000Y-109980000D02*
X91645000Y-108626667D01*
X91765000Y-109980000D02*
X91765000Y-108626667D01*
X91885000Y-109980000D02*
X91885000Y-108626667D01*
X92005000Y-109980000D02*
X92005000Y-108626667D01*
X90805000Y-108626667D02*
X92075000Y-108626667D01*
%TO.C,D1*%
X114260000Y-111760000D02*
G75*
G03*
X114260000Y-111760000I-2500000J0D01*
G01*
X110215000Y-114320000D02*
X113305000Y-114320000D01*
X111759538Y-108770000D02*
G75*
G02*
X113304830Y-114320000I462J-2990000D01*
G01*
X111760462Y-108770000D02*
G75*
G03*
X110215170Y-114320000I-462J-2990000D01*
G01*
%TO.C,C1*%
X96920000Y-117960000D02*
X106160000Y-117960000D01*
X96920000Y-120800000D02*
X106160000Y-120800000D01*
X96920000Y-117960000D02*
X96920000Y-118715000D01*
X96920000Y-120045000D02*
X96920000Y-120800000D01*
X106160000Y-117960000D02*
X106160000Y-118715000D01*
X106160000Y-120045000D02*
X106160000Y-120800000D01*
%TO.C,D2*%
X114320000Y-89175000D02*
X114320000Y-86085000D01*
X114260000Y-87630000D02*
G75*
G03*
X114260000Y-87630000I-2500000J0D01*
G01*
X108770000Y-87629538D02*
G75*
G03*
X114320000Y-89174830I2990000J-462D01*
G01*
X108770000Y-87630462D02*
G75*
G02*
X114320000Y-86085170I2990000J462D01*
G01*
%TO.C,DRoueLibre1*%
X104320000Y-125600000D02*
X104320000Y-125930000D01*
X104320000Y-125930000D02*
X98880000Y-125930000D01*
X98880000Y-125930000D02*
X98880000Y-125600000D01*
X104320000Y-123320000D02*
X104320000Y-122990000D01*
X104320000Y-122990000D02*
X98880000Y-122990000D01*
X98880000Y-122990000D02*
X98880000Y-123320000D01*
X103420000Y-125930000D02*
X103420000Y-122990000D01*
X103300000Y-125930000D02*
X103300000Y-122990000D01*
X103540000Y-125930000D02*
X103540000Y-122990000D01*
%TO.C,R1*%
X117570000Y-104240000D02*
X117570000Y-101500000D01*
X117570000Y-101500000D02*
X111030000Y-101500000D01*
X111030000Y-101500000D02*
X111030000Y-104240000D01*
X111030000Y-104240000D02*
X117570000Y-104240000D01*
X118340000Y-102870000D02*
X117570000Y-102870000D01*
X110260000Y-102870000D02*
X111030000Y-102870000D01*
%TO.C,R2*%
X92710000Y-88670000D02*
X92710000Y-89440000D01*
X92710000Y-96750000D02*
X92710000Y-95980000D01*
X91340000Y-89440000D02*
X91340000Y-95980000D01*
X94080000Y-89440000D02*
X91340000Y-89440000D01*
X94080000Y-95980000D02*
X94080000Y-89440000D01*
X91340000Y-95980000D02*
X94080000Y-95980000D01*
%TO.C,SW2*%
X100923333Y-93345000D02*
X100923333Y-94615000D01*
X99570000Y-94545000D02*
X100923333Y-94545000D01*
X99570000Y-94425000D02*
X100923333Y-94425000D01*
X99570000Y-94305000D02*
X100923333Y-94305000D01*
X99570000Y-94185000D02*
X100923333Y-94185000D01*
X99570000Y-94065000D02*
X100923333Y-94065000D01*
X99570000Y-93945000D02*
X100923333Y-93945000D01*
X99570000Y-93825000D02*
X100923333Y-93825000D01*
X99570000Y-93705000D02*
X100923333Y-93705000D01*
X99570000Y-93585000D02*
X100923333Y-93585000D01*
X99570000Y-93465000D02*
X100923333Y-93465000D01*
X103630000Y-93345000D02*
X99570000Y-93345000D01*
X103630000Y-94615000D02*
X103630000Y-93345000D01*
X99570000Y-94615000D02*
X103630000Y-94615000D01*
X99570000Y-93345000D02*
X99570000Y-94615000D01*
X96410000Y-91320000D02*
X96410000Y-92703000D01*
X96410000Y-91320000D02*
X97794000Y-91320000D01*
X106550000Y-91560000D02*
X106550000Y-96400000D01*
X96650000Y-91560000D02*
X96650000Y-96400000D01*
X96650000Y-96400000D02*
X106550000Y-96400000D01*
X96650000Y-91560000D02*
X106550000Y-91560000D01*
%TO.C,Ualphasense1*%
X90060000Y-117620000D02*
X90060000Y-123640000D01*
X90060000Y-123640000D02*
X95360000Y-123640000D01*
X95360000Y-123640000D02*
X95360000Y-117620000D01*
X95360000Y-117620000D02*
X90060000Y-117620000D01*
X89770000Y-118650000D02*
X89770000Y-122650000D01*
X91440000Y-123640000D02*
X91440000Y-122640000D01*
X91440000Y-122640000D02*
X93980000Y-122640000D01*
X93980000Y-122640000D02*
X93980000Y-123640000D01*
X91440000Y-122640000D02*
X91690000Y-122110000D01*
X91690000Y-122110000D02*
X93730000Y-122110000D01*
X93730000Y-122110000D02*
X93980000Y-122640000D01*
X91690000Y-123640000D02*
X91690000Y-122640000D01*
X93730000Y-123640000D02*
X93730000Y-122640000D01*
X90640000Y-117620000D02*
X90640000Y-118220000D01*
X90640000Y-118220000D02*
X92240000Y-118220000D01*
X92240000Y-118220000D02*
X92240000Y-117620000D01*
X93180000Y-117620000D02*
X93180000Y-118220000D01*
X93180000Y-118220000D02*
X94780000Y-118220000D01*
X94780000Y-118220000D02*
X94780000Y-117620000D01*
%TO.C,Uarduino1*%
X109690000Y-124350000D02*
X109690000Y-124950000D01*
X111290000Y-124350000D02*
X109690000Y-124350000D01*
X111290000Y-124950000D02*
X111290000Y-124350000D01*
X112230000Y-124350000D02*
X112230000Y-124950000D01*
X113830000Y-124350000D02*
X112230000Y-124350000D01*
X113830000Y-124950000D02*
X113830000Y-124350000D01*
X110740000Y-118930000D02*
X110740000Y-119930000D01*
X112780000Y-118930000D02*
X112780000Y-119930000D01*
X110740000Y-120460000D02*
X110490000Y-119930000D01*
X112780000Y-120460000D02*
X110740000Y-120460000D01*
X113030000Y-119930000D02*
X112780000Y-120460000D01*
X110490000Y-119930000D02*
X110490000Y-118930000D01*
X113030000Y-119930000D02*
X110490000Y-119930000D01*
X113030000Y-118930000D02*
X113030000Y-119930000D01*
X114700000Y-123920000D02*
X114700000Y-119920000D01*
X109110000Y-124950000D02*
X114410000Y-124950000D01*
X109110000Y-118930000D02*
X109110000Y-124950000D01*
X114410000Y-118930000D02*
X109110000Y-118930000D01*
X114410000Y-124950000D02*
X114410000Y-118930000D01*
%TO.C,UFusible1*%
X110000000Y-97900000D02*
X116020000Y-97900000D01*
X116020000Y-97900000D02*
X116020000Y-92600000D01*
X116020000Y-92600000D02*
X110000000Y-92600000D01*
X110000000Y-92600000D02*
X110000000Y-97900000D01*
X111030000Y-98190000D02*
X115030000Y-98190000D01*
X116020000Y-96520000D02*
X115020000Y-96520000D01*
X115020000Y-96520000D02*
X115020000Y-93980000D01*
X115020000Y-93980000D02*
X116020000Y-93980000D01*
X115020000Y-96520000D02*
X114490000Y-96270000D01*
X114490000Y-96270000D02*
X114490000Y-94230000D01*
X114490000Y-94230000D02*
X115020000Y-93980000D01*
X116020000Y-96270000D02*
X115020000Y-96270000D01*
X116020000Y-94230000D02*
X115020000Y-94230000D01*
X110000000Y-97320000D02*
X110600000Y-97320000D01*
X110600000Y-97320000D02*
X110600000Y-95720000D01*
X110600000Y-95720000D02*
X110000000Y-95720000D01*
X110000000Y-94780000D02*
X110600000Y-94780000D01*
X110600000Y-94780000D02*
X110600000Y-93180000D01*
X110600000Y-93180000D02*
X110000000Y-93180000D01*
%TO.C,UIn1*%
X96650000Y-100450000D02*
X106550000Y-100450000D01*
X96650000Y-105290000D02*
X106550000Y-105290000D01*
X96650000Y-100450000D02*
X96650000Y-105290000D01*
X106550000Y-100450000D02*
X106550000Y-105290000D01*
X96410000Y-100210000D02*
X97794000Y-100210000D01*
X96410000Y-100210000D02*
X96410000Y-101593000D01*
X99570000Y-102235000D02*
X99570000Y-103505000D01*
X99570000Y-103505000D02*
X103630000Y-103505000D01*
X103630000Y-103505000D02*
X103630000Y-102235000D01*
X103630000Y-102235000D02*
X99570000Y-102235000D01*
X99570000Y-102355000D02*
X100923333Y-102355000D01*
X99570000Y-102475000D02*
X100923333Y-102475000D01*
X99570000Y-102595000D02*
X100923333Y-102595000D01*
X99570000Y-102715000D02*
X100923333Y-102715000D01*
X99570000Y-102835000D02*
X100923333Y-102835000D01*
X99570000Y-102955000D02*
X100923333Y-102955000D01*
X99570000Y-103075000D02*
X100923333Y-103075000D01*
X99570000Y-103195000D02*
X100923333Y-103195000D01*
X99570000Y-103315000D02*
X100923333Y-103315000D01*
X99570000Y-103435000D02*
X100923333Y-103435000D01*
X100923333Y-102235000D02*
X100923333Y-103505000D01*
%TO.C,Uout1*%
X100923333Y-112395000D02*
X100923333Y-113665000D01*
X99570000Y-113595000D02*
X100923333Y-113595000D01*
X99570000Y-113475000D02*
X100923333Y-113475000D01*
X99570000Y-113355000D02*
X100923333Y-113355000D01*
X99570000Y-113235000D02*
X100923333Y-113235000D01*
X99570000Y-113115000D02*
X100923333Y-113115000D01*
X99570000Y-112995000D02*
X100923333Y-112995000D01*
X99570000Y-112875000D02*
X100923333Y-112875000D01*
X99570000Y-112755000D02*
X100923333Y-112755000D01*
X99570000Y-112635000D02*
X100923333Y-112635000D01*
X99570000Y-112515000D02*
X100923333Y-112515000D01*
X103630000Y-112395000D02*
X99570000Y-112395000D01*
X103630000Y-113665000D02*
X103630000Y-112395000D01*
X99570000Y-113665000D02*
X103630000Y-113665000D01*
X99570000Y-112395000D02*
X99570000Y-113665000D01*
X96410000Y-110370000D02*
X96410000Y-111753000D01*
X96410000Y-110370000D02*
X97794000Y-110370000D01*
X106550000Y-110610000D02*
X106550000Y-115450000D01*
X96650000Y-110610000D02*
X96650000Y-115450000D01*
X96650000Y-115450000D02*
X106550000Y-115450000D01*
X96650000Y-110610000D02*
X106550000Y-110610000D01*
%TO.C,*%
D11*
%TO.C,SW1*%
X88424761Y-109283333D02*
X88472380Y-109140476D01*
X88472380Y-108902380D01*
X88424761Y-108807142D01*
X88377142Y-108759523D01*
X88281904Y-108711904D01*
X88186666Y-108711904D01*
X88091428Y-108759523D01*
X88043809Y-108807142D01*
X87996190Y-108902380D01*
X87948571Y-109092857D01*
X87900952Y-109188095D01*
X87853333Y-109235714D01*
X87758095Y-109283333D01*
X87662857Y-109283333D01*
X87567619Y-109235714D01*
X87520000Y-109188095D01*
X87472380Y-109092857D01*
X87472380Y-108854761D01*
X87520000Y-108711904D01*
X87472380Y-108378571D02*
X88472380Y-108140476D01*
X87758095Y-107950000D01*
X88472380Y-107759523D01*
X87472380Y-107521428D01*
X88472380Y-106616666D02*
X88472380Y-107188095D01*
X88472380Y-106902380D02*
X87472380Y-106902380D01*
X87615238Y-106997619D01*
X87710476Y-107092857D01*
X87758095Y-107188095D01*
%TO.C,D1*%
X117292380Y-112498095D02*
X116292380Y-112498095D01*
X116292380Y-112260000D01*
X116340000Y-112117142D01*
X116435238Y-112021904D01*
X116530476Y-111974285D01*
X116720952Y-111926666D01*
X116863809Y-111926666D01*
X117054285Y-111974285D01*
X117149523Y-112021904D01*
X117244761Y-112117142D01*
X117292380Y-112260000D01*
X117292380Y-112498095D01*
X117292380Y-110974285D02*
X117292380Y-111545714D01*
X117292380Y-111260000D02*
X116292380Y-111260000D01*
X116435238Y-111355238D01*
X116530476Y-111450476D01*
X116578095Y-111545714D01*
%TO.C,C1*%
X101373333Y-122277142D02*
X101325714Y-122324761D01*
X101182857Y-122372380D01*
X101087619Y-122372380D01*
X100944761Y-122324761D01*
X100849523Y-122229523D01*
X100801904Y-122134285D01*
X100754285Y-121943809D01*
X100754285Y-121800952D01*
X100801904Y-121610476D01*
X100849523Y-121515238D01*
X100944761Y-121420000D01*
X101087619Y-121372380D01*
X101182857Y-121372380D01*
X101325714Y-121420000D01*
X101373333Y-121467619D01*
X102325714Y-122372380D02*
X101754285Y-122372380D01*
X102040000Y-122372380D02*
X102040000Y-121372380D01*
X101944761Y-121515238D01*
X101849523Y-121610476D01*
X101754285Y-121658095D01*
%TO.C,D2*%
X111021904Y-84272380D02*
X111021904Y-83272380D01*
X111260000Y-83272380D01*
X111402857Y-83320000D01*
X111498095Y-83415238D01*
X111545714Y-83510476D01*
X111593333Y-83700952D01*
X111593333Y-83843809D01*
X111545714Y-84034285D01*
X111498095Y-84129523D01*
X111402857Y-84224761D01*
X111260000Y-84272380D01*
X111021904Y-84272380D01*
X111974285Y-83367619D02*
X112021904Y-83320000D01*
X112117142Y-83272380D01*
X112355238Y-83272380D01*
X112450476Y-83320000D01*
X112498095Y-83367619D01*
X112545714Y-83462857D01*
X112545714Y-83558095D01*
X112498095Y-83700952D01*
X111926666Y-84272380D01*
X112545714Y-84272380D01*
%TO.C,DRoueLibre1*%
X97195238Y-127382380D02*
X97195238Y-126382380D01*
X97433333Y-126382380D01*
X97576190Y-126430000D01*
X97671428Y-126525238D01*
X97719047Y-126620476D01*
X97766666Y-126810952D01*
X97766666Y-126953809D01*
X97719047Y-127144285D01*
X97671428Y-127239523D01*
X97576190Y-127334761D01*
X97433333Y-127382380D01*
X97195238Y-127382380D01*
X98766666Y-127382380D02*
X98433333Y-126906190D01*
X98195238Y-127382380D02*
X98195238Y-126382380D01*
X98576190Y-126382380D01*
X98671428Y-126430000D01*
X98719047Y-126477619D01*
X98766666Y-126572857D01*
X98766666Y-126715714D01*
X98719047Y-126810952D01*
X98671428Y-126858571D01*
X98576190Y-126906190D01*
X98195238Y-126906190D01*
X99338095Y-127382380D02*
X99242857Y-127334761D01*
X99195238Y-127287142D01*
X99147619Y-127191904D01*
X99147619Y-126906190D01*
X99195238Y-126810952D01*
X99242857Y-126763333D01*
X99338095Y-126715714D01*
X99480952Y-126715714D01*
X99576190Y-126763333D01*
X99623809Y-126810952D01*
X99671428Y-126906190D01*
X99671428Y-127191904D01*
X99623809Y-127287142D01*
X99576190Y-127334761D01*
X99480952Y-127382380D01*
X99338095Y-127382380D01*
X100528571Y-126715714D02*
X100528571Y-127382380D01*
X100100000Y-126715714D02*
X100100000Y-127239523D01*
X100147619Y-127334761D01*
X100242857Y-127382380D01*
X100385714Y-127382380D01*
X100480952Y-127334761D01*
X100528571Y-127287142D01*
X101385714Y-127334761D02*
X101290476Y-127382380D01*
X101100000Y-127382380D01*
X101004761Y-127334761D01*
X100957142Y-127239523D01*
X100957142Y-126858571D01*
X101004761Y-126763333D01*
X101100000Y-126715714D01*
X101290476Y-126715714D01*
X101385714Y-126763333D01*
X101433333Y-126858571D01*
X101433333Y-126953809D01*
X100957142Y-127049047D01*
X102338095Y-127382380D02*
X101861904Y-127382380D01*
X101861904Y-126382380D01*
X102671428Y-127382380D02*
X102671428Y-126715714D01*
X102671428Y-126382380D02*
X102623809Y-126430000D01*
X102671428Y-126477619D01*
X102719047Y-126430000D01*
X102671428Y-126382380D01*
X102671428Y-126477619D01*
X103147619Y-127382380D02*
X103147619Y-126382380D01*
X103147619Y-126763333D02*
X103242857Y-126715714D01*
X103433333Y-126715714D01*
X103528571Y-126763333D01*
X103576190Y-126810952D01*
X103623809Y-126906190D01*
X103623809Y-127191904D01*
X103576190Y-127287142D01*
X103528571Y-127334761D01*
X103433333Y-127382380D01*
X103242857Y-127382380D01*
X103147619Y-127334761D01*
X104052380Y-127382380D02*
X104052380Y-126715714D01*
X104052380Y-126906190D02*
X104100000Y-126810952D01*
X104147619Y-126763333D01*
X104242857Y-126715714D01*
X104338095Y-126715714D01*
X105052380Y-127334761D02*
X104957142Y-127382380D01*
X104766666Y-127382380D01*
X104671428Y-127334761D01*
X104623809Y-127239523D01*
X104623809Y-126858571D01*
X104671428Y-126763333D01*
X104766666Y-126715714D01*
X104957142Y-126715714D01*
X105052380Y-126763333D01*
X105100000Y-126858571D01*
X105100000Y-126953809D01*
X104623809Y-127049047D01*
X106052380Y-127382380D02*
X105480952Y-127382380D01*
X105766666Y-127382380D02*
X105766666Y-126382380D01*
X105671428Y-126525238D01*
X105576190Y-126620476D01*
X105480952Y-126668095D01*
X105148095Y-126812380D02*
X105148095Y-125812380D01*
X105719523Y-126812380D02*
X105290952Y-126240952D01*
X105719523Y-125812380D02*
X105148095Y-126383809D01*
%TO.C,R1*%
X114133333Y-105692380D02*
X113800000Y-105216190D01*
X113561904Y-105692380D02*
X113561904Y-104692380D01*
X113942857Y-104692380D01*
X114038095Y-104740000D01*
X114085714Y-104787619D01*
X114133333Y-104882857D01*
X114133333Y-105025714D01*
X114085714Y-105120952D01*
X114038095Y-105168571D01*
X113942857Y-105216190D01*
X113561904Y-105216190D01*
X115085714Y-105692380D02*
X114514285Y-105692380D01*
X114800000Y-105692380D02*
X114800000Y-104692380D01*
X114704761Y-104835238D01*
X114609523Y-104930476D01*
X114514285Y-104978095D01*
%TO.C,R2*%
X90792380Y-92876666D02*
X90316190Y-93210000D01*
X90792380Y-93448095D02*
X89792380Y-93448095D01*
X89792380Y-93067142D01*
X89840000Y-92971904D01*
X89887619Y-92924285D01*
X89982857Y-92876666D01*
X90125714Y-92876666D01*
X90220952Y-92924285D01*
X90268571Y-92971904D01*
X90316190Y-93067142D01*
X90316190Y-93448095D01*
X89887619Y-92495714D02*
X89840000Y-92448095D01*
X89792380Y-92352857D01*
X89792380Y-92114761D01*
X89840000Y-92019523D01*
X89887619Y-91971904D01*
X89982857Y-91924285D01*
X90078095Y-91924285D01*
X90220952Y-91971904D01*
X90792380Y-92543333D01*
X90792380Y-91924285D01*
%TO.C,SW2*%
X100266666Y-98194761D02*
X100409523Y-98242380D01*
X100647619Y-98242380D01*
X100742857Y-98194761D01*
X100790476Y-98147142D01*
X100838095Y-98051904D01*
X100838095Y-97956666D01*
X100790476Y-97861428D01*
X100742857Y-97813809D01*
X100647619Y-97766190D01*
X100457142Y-97718571D01*
X100361904Y-97670952D01*
X100314285Y-97623333D01*
X100266666Y-97528095D01*
X100266666Y-97432857D01*
X100314285Y-97337619D01*
X100361904Y-97290000D01*
X100457142Y-97242380D01*
X100695238Y-97242380D01*
X100838095Y-97290000D01*
X101171428Y-97242380D02*
X101409523Y-98242380D01*
X101600000Y-97528095D01*
X101790476Y-98242380D01*
X102028571Y-97242380D01*
X102361904Y-97337619D02*
X102409523Y-97290000D01*
X102504761Y-97242380D01*
X102742857Y-97242380D01*
X102838095Y-97290000D01*
X102885714Y-97337619D01*
X102933333Y-97432857D01*
X102933333Y-97528095D01*
X102885714Y-97670952D01*
X102314285Y-98242380D01*
X102933333Y-98242380D01*
%TO.C,Ualphasense1*%
X87082380Y-124332380D02*
X87891904Y-124332380D01*
X87987142Y-124284761D01*
X88034761Y-124237142D01*
X88082380Y-124141904D01*
X88082380Y-123951428D01*
X88034761Y-123856190D01*
X87987142Y-123808571D01*
X87891904Y-123760952D01*
X87082380Y-123760952D01*
X88082380Y-122856190D02*
X87558571Y-122856190D01*
X87463333Y-122903809D01*
X87415714Y-122999047D01*
X87415714Y-123189523D01*
X87463333Y-123284761D01*
X88034761Y-122856190D02*
X88082380Y-122951428D01*
X88082380Y-123189523D01*
X88034761Y-123284761D01*
X87939523Y-123332380D01*
X87844285Y-123332380D01*
X87749047Y-123284761D01*
X87701428Y-123189523D01*
X87701428Y-122951428D01*
X87653809Y-122856190D01*
X88082380Y-122237142D02*
X88034761Y-122332380D01*
X87939523Y-122380000D01*
X87082380Y-122380000D01*
X87415714Y-121856190D02*
X88415714Y-121856190D01*
X87463333Y-121856190D02*
X87415714Y-121760952D01*
X87415714Y-121570476D01*
X87463333Y-121475238D01*
X87510952Y-121427619D01*
X87606190Y-121380000D01*
X87891904Y-121380000D01*
X87987142Y-121427619D01*
X88034761Y-121475238D01*
X88082380Y-121570476D01*
X88082380Y-121760952D01*
X88034761Y-121856190D01*
X88082380Y-120951428D02*
X87082380Y-120951428D01*
X88082380Y-120522857D02*
X87558571Y-120522857D01*
X87463333Y-120570476D01*
X87415714Y-120665714D01*
X87415714Y-120808571D01*
X87463333Y-120903809D01*
X87510952Y-120951428D01*
X88082380Y-119618095D02*
X87558571Y-119618095D01*
X87463333Y-119665714D01*
X87415714Y-119760952D01*
X87415714Y-119951428D01*
X87463333Y-120046666D01*
X88034761Y-119618095D02*
X88082380Y-119713333D01*
X88082380Y-119951428D01*
X88034761Y-120046666D01*
X87939523Y-120094285D01*
X87844285Y-120094285D01*
X87749047Y-120046666D01*
X87701428Y-119951428D01*
X87701428Y-119713333D01*
X87653809Y-119618095D01*
X88034761Y-119189523D02*
X88082380Y-119094285D01*
X88082380Y-118903809D01*
X88034761Y-118808571D01*
X87939523Y-118760952D01*
X87891904Y-118760952D01*
X87796666Y-118808571D01*
X87749047Y-118903809D01*
X87749047Y-119046666D01*
X87701428Y-119141904D01*
X87606190Y-119189523D01*
X87558571Y-119189523D01*
X87463333Y-119141904D01*
X87415714Y-119046666D01*
X87415714Y-118903809D01*
X87463333Y-118808571D01*
X88034761Y-117951428D02*
X88082380Y-118046666D01*
X88082380Y-118237142D01*
X88034761Y-118332380D01*
X87939523Y-118380000D01*
X87558571Y-118380000D01*
X87463333Y-118332380D01*
X87415714Y-118237142D01*
X87415714Y-118046666D01*
X87463333Y-117951428D01*
X87558571Y-117903809D01*
X87653809Y-117903809D01*
X87749047Y-118380000D01*
X87415714Y-117475238D02*
X88082380Y-117475238D01*
X87510952Y-117475238D02*
X87463333Y-117427619D01*
X87415714Y-117332380D01*
X87415714Y-117189523D01*
X87463333Y-117094285D01*
X87558571Y-117046666D01*
X88082380Y-117046666D01*
X88034761Y-116618095D02*
X88082380Y-116522857D01*
X88082380Y-116332380D01*
X88034761Y-116237142D01*
X87939523Y-116189523D01*
X87891904Y-116189523D01*
X87796666Y-116237142D01*
X87749047Y-116332380D01*
X87749047Y-116475238D01*
X87701428Y-116570476D01*
X87606190Y-116618095D01*
X87558571Y-116618095D01*
X87463333Y-116570476D01*
X87415714Y-116475238D01*
X87415714Y-116332380D01*
X87463333Y-116237142D01*
X88034761Y-115380000D02*
X88082380Y-115475238D01*
X88082380Y-115665714D01*
X88034761Y-115760952D01*
X87939523Y-115808571D01*
X87558571Y-115808571D01*
X87463333Y-115760952D01*
X87415714Y-115665714D01*
X87415714Y-115475238D01*
X87463333Y-115380000D01*
X87558571Y-115332380D01*
X87653809Y-115332380D01*
X87749047Y-115808571D01*
X88082380Y-114380000D02*
X88082380Y-114951428D01*
X88082380Y-114665714D02*
X87082380Y-114665714D01*
X87225238Y-114760952D01*
X87320476Y-114856190D01*
X87368095Y-114951428D01*
%TO.C,Uarduino1*%
X108188571Y-125492380D02*
X108188571Y-126301904D01*
X108236190Y-126397142D01*
X108283809Y-126444761D01*
X108379047Y-126492380D01*
X108569523Y-126492380D01*
X108664761Y-126444761D01*
X108712380Y-126397142D01*
X108760000Y-126301904D01*
X108760000Y-125492380D01*
X109664761Y-126492380D02*
X109664761Y-125968571D01*
X109617142Y-125873333D01*
X109521904Y-125825714D01*
X109331428Y-125825714D01*
X109236190Y-125873333D01*
X109664761Y-126444761D02*
X109569523Y-126492380D01*
X109331428Y-126492380D01*
X109236190Y-126444761D01*
X109188571Y-126349523D01*
X109188571Y-126254285D01*
X109236190Y-126159047D01*
X109331428Y-126111428D01*
X109569523Y-126111428D01*
X109664761Y-126063809D01*
X110140952Y-126492380D02*
X110140952Y-125825714D01*
X110140952Y-126016190D02*
X110188571Y-125920952D01*
X110236190Y-125873333D01*
X110331428Y-125825714D01*
X110426666Y-125825714D01*
X111188571Y-126492380D02*
X111188571Y-125492380D01*
X111188571Y-126444761D02*
X111093333Y-126492380D01*
X110902857Y-126492380D01*
X110807619Y-126444761D01*
X110760000Y-126397142D01*
X110712380Y-126301904D01*
X110712380Y-126016190D01*
X110760000Y-125920952D01*
X110807619Y-125873333D01*
X110902857Y-125825714D01*
X111093333Y-125825714D01*
X111188571Y-125873333D01*
X112093333Y-125825714D02*
X112093333Y-126492380D01*
X111664761Y-125825714D02*
X111664761Y-126349523D01*
X111712380Y-126444761D01*
X111807619Y-126492380D01*
X111950476Y-126492380D01*
X112045714Y-126444761D01*
X112093333Y-126397142D01*
X112569523Y-126492380D02*
X112569523Y-125825714D01*
X112569523Y-125492380D02*
X112521904Y-125540000D01*
X112569523Y-125587619D01*
X112617142Y-125540000D01*
X112569523Y-125492380D01*
X112569523Y-125587619D01*
X113045714Y-125825714D02*
X113045714Y-126492380D01*
X113045714Y-125920952D02*
X113093333Y-125873333D01*
X113188571Y-125825714D01*
X113331428Y-125825714D01*
X113426666Y-125873333D01*
X113474285Y-125968571D01*
X113474285Y-126492380D01*
X114093333Y-126492380D02*
X113998095Y-126444761D01*
X113950476Y-126397142D01*
X113902857Y-126301904D01*
X113902857Y-126016190D01*
X113950476Y-125920952D01*
X113998095Y-125873333D01*
X114093333Y-125825714D01*
X114236190Y-125825714D01*
X114331428Y-125873333D01*
X114379047Y-125920952D01*
X114426666Y-126016190D01*
X114426666Y-126301904D01*
X114379047Y-126397142D01*
X114331428Y-126444761D01*
X114236190Y-126492380D01*
X114093333Y-126492380D01*
X115379047Y-126492380D02*
X114807619Y-126492380D01*
X115093333Y-126492380D02*
X115093333Y-125492380D01*
X114998095Y-125635238D01*
X114902857Y-125730476D01*
X114807619Y-125778095D01*
%TO.C,UFusible1*%
X108362380Y-98678571D02*
X109171904Y-98678571D01*
X109267142Y-98630952D01*
X109314761Y-98583333D01*
X109362380Y-98488095D01*
X109362380Y-98297619D01*
X109314761Y-98202380D01*
X109267142Y-98154761D01*
X109171904Y-98107142D01*
X108362380Y-98107142D01*
X108838571Y-97297619D02*
X108838571Y-97630952D01*
X109362380Y-97630952D02*
X108362380Y-97630952D01*
X108362380Y-97154761D01*
X108695714Y-96345238D02*
X109362380Y-96345238D01*
X108695714Y-96773809D02*
X109219523Y-96773809D01*
X109314761Y-96726190D01*
X109362380Y-96630952D01*
X109362380Y-96488095D01*
X109314761Y-96392857D01*
X109267142Y-96345238D01*
X109314761Y-95916666D02*
X109362380Y-95821428D01*
X109362380Y-95630952D01*
X109314761Y-95535714D01*
X109219523Y-95488095D01*
X109171904Y-95488095D01*
X109076666Y-95535714D01*
X109029047Y-95630952D01*
X109029047Y-95773809D01*
X108981428Y-95869047D01*
X108886190Y-95916666D01*
X108838571Y-95916666D01*
X108743333Y-95869047D01*
X108695714Y-95773809D01*
X108695714Y-95630952D01*
X108743333Y-95535714D01*
X109362380Y-95059523D02*
X108695714Y-95059523D01*
X108362380Y-95059523D02*
X108410000Y-95107142D01*
X108457619Y-95059523D01*
X108410000Y-95011904D01*
X108362380Y-95059523D01*
X108457619Y-95059523D01*
X109362380Y-94583333D02*
X108362380Y-94583333D01*
X108743333Y-94583333D02*
X108695714Y-94488095D01*
X108695714Y-94297619D01*
X108743333Y-94202380D01*
X108790952Y-94154761D01*
X108886190Y-94107142D01*
X109171904Y-94107142D01*
X109267142Y-94154761D01*
X109314761Y-94202380D01*
X109362380Y-94297619D01*
X109362380Y-94488095D01*
X109314761Y-94583333D01*
X109362380Y-93535714D02*
X109314761Y-93630952D01*
X109219523Y-93678571D01*
X108362380Y-93678571D01*
X109314761Y-92773809D02*
X109362380Y-92869047D01*
X109362380Y-93059523D01*
X109314761Y-93154761D01*
X109219523Y-93202380D01*
X108838571Y-93202380D01*
X108743333Y-93154761D01*
X108695714Y-93059523D01*
X108695714Y-92869047D01*
X108743333Y-92773809D01*
X108838571Y-92726190D01*
X108933809Y-92726190D01*
X109029047Y-93202380D01*
X109362380Y-91773809D02*
X109362380Y-92345238D01*
X109362380Y-92059523D02*
X108362380Y-92059523D01*
X108505238Y-92154761D01*
X108600476Y-92250000D01*
X108648095Y-92345238D01*
%TO.C,UIn1*%
X100147619Y-106132380D02*
X100147619Y-106941904D01*
X100195238Y-107037142D01*
X100242857Y-107084761D01*
X100338095Y-107132380D01*
X100528571Y-107132380D01*
X100623809Y-107084761D01*
X100671428Y-107037142D01*
X100719047Y-106941904D01*
X100719047Y-106132380D01*
X101195238Y-107132380D02*
X101195238Y-106132380D01*
X101671428Y-106465714D02*
X101671428Y-107132380D01*
X101671428Y-106560952D02*
X101719047Y-106513333D01*
X101814285Y-106465714D01*
X101957142Y-106465714D01*
X102052380Y-106513333D01*
X102100000Y-106608571D01*
X102100000Y-107132380D01*
X103100000Y-107132380D02*
X102528571Y-107132380D01*
X102814285Y-107132380D02*
X102814285Y-106132380D01*
X102719047Y-106275238D01*
X102623809Y-106370476D01*
X102528571Y-106418095D01*
%TO.C,Uout1*%
X99647619Y-116292380D02*
X99647619Y-117101904D01*
X99695238Y-117197142D01*
X99742857Y-117244761D01*
X99838095Y-117292380D01*
X100028571Y-117292380D01*
X100123809Y-117244761D01*
X100171428Y-117197142D01*
X100219047Y-117101904D01*
X100219047Y-116292380D01*
X100838095Y-117292380D02*
X100742857Y-117244761D01*
X100695238Y-117197142D01*
X100647619Y-117101904D01*
X100647619Y-116816190D01*
X100695238Y-116720952D01*
X100742857Y-116673333D01*
X100838095Y-116625714D01*
X100980952Y-116625714D01*
X101076190Y-116673333D01*
X101123809Y-116720952D01*
X101171428Y-116816190D01*
X101171428Y-117101904D01*
X101123809Y-117197142D01*
X101076190Y-117244761D01*
X100980952Y-117292380D01*
X100838095Y-117292380D01*
X102028571Y-116625714D02*
X102028571Y-117292380D01*
X101600000Y-116625714D02*
X101600000Y-117149523D01*
X101647619Y-117244761D01*
X101742857Y-117292380D01*
X101885714Y-117292380D01*
X101980952Y-117244761D01*
X102028571Y-117197142D01*
X102361904Y-116625714D02*
X102742857Y-116625714D01*
X102504761Y-116292380D02*
X102504761Y-117149523D01*
X102552380Y-117244761D01*
X102647619Y-117292380D01*
X102742857Y-117292380D01*
X103600000Y-117292380D02*
X103028571Y-117292380D01*
X103314285Y-117292380D02*
X103314285Y-116292380D01*
X103219047Y-116435238D01*
X103123809Y-116530476D01*
X103028571Y-116578095D01*
%TD*%
M02*
