%TF.GenerationSoftware,KiCad,Pcbnew,(5.1.10)-1*%
%TF.CreationDate,2021-07-06T16:49:45+02:00*%
%TF.ProjectId,circuitPanneauCarbOnFire,63697263-7569-4745-9061-6e6e65617543,rev?*%
%TF.SameCoordinates,Original*%
%TF.FileFunction,Soldermask,Top*%
%TF.FilePolarity,Negative*%
%FSLAX46Y46*%
G04 Gerber Fmt 4.6, Leading zero omitted, Abs format (unit mm)*
G04 Created by KiCad (PCBNEW (5.1.10)-1) date 2021-07-06 16:49:45*
%MOMM*%
%LPD*%
G01*
G04 APERTURE LIST*
%ADD10C,2.700000*%
%ADD11R,1.600000X1.600000*%
%ADD12O,1.600000X1.600000*%
%ADD13C,1.800000*%
%ADD14R,1.800000X1.800000*%
%ADD15C,1.600000*%
%ADD16O,1.800000X1.800000*%
%ADD17O,1.740000X2.190000*%
%ADD18O,2.190000X1.740000*%
G04 APERTURE END LIST*
D10*
%TO.C,*%
X86360000Y-125730000D03*
%TD*%
%TO.C,*%
X86360000Y-86360000D03*
%TD*%
%TO.C,*%
X119380000Y-125730000D03*
%TD*%
%TO.C,*%
X119380000Y-86360000D03*
%TD*%
D11*
%TO.C,SW1*%
X91440000Y-111760000D03*
D12*
X91440000Y-104140000D03*
%TD*%
D13*
%TO.C,D1*%
X111760000Y-110490000D03*
D14*
X111760000Y-113030000D03*
%TD*%
D15*
%TO.C,C1*%
X97790000Y-119380000D03*
X105290000Y-119380000D03*
%TD*%
D14*
%TO.C,D2*%
X113030000Y-87630000D03*
D13*
X110490000Y-87630000D03*
%TD*%
D14*
%TO.C,DRoueLibre1*%
X105410000Y-124460000D03*
D16*
X97790000Y-124460000D03*
%TD*%
D15*
%TO.C,R1*%
X119380000Y-102870000D03*
D12*
X109220000Y-102870000D03*
%TD*%
%TO.C,R2*%
X92710000Y-87630000D03*
D15*
X92710000Y-97790000D03*
%TD*%
D12*
%TO.C,SW2*%
X105410000Y-93980000D03*
D11*
X97790000Y-93980000D03*
%TD*%
%TO.C,Ualphasense1*%
G36*
G01*
X90570000Y-121495001D02*
X90570000Y-119804999D01*
G75*
G02*
X90819999Y-119555000I249999J0D01*
G01*
X92060001Y-119555000D01*
G75*
G02*
X92310000Y-119804999I0J-249999D01*
G01*
X92310000Y-121495001D01*
G75*
G02*
X92060001Y-121745000I-249999J0D01*
G01*
X90819999Y-121745000D01*
G75*
G02*
X90570000Y-121495001I0J249999D01*
G01*
G37*
D17*
X93980000Y-120650000D03*
%TD*%
%TO.C,Uarduino1*%
X110490000Y-121920000D03*
G36*
G01*
X113900000Y-121074999D02*
X113900000Y-122765001D01*
G75*
G02*
X113650001Y-123015000I-249999J0D01*
G01*
X112409999Y-123015000D01*
G75*
G02*
X112160000Y-122765001I0J249999D01*
G01*
X112160000Y-121074999D01*
G75*
G02*
X112409999Y-120825000I249999J0D01*
G01*
X113650001Y-120825000D01*
G75*
G02*
X113900000Y-121074999I0J-249999D01*
G01*
G37*
%TD*%
%TO.C,UFusible1*%
G36*
G01*
X113875001Y-97390000D02*
X112184999Y-97390000D01*
G75*
G02*
X111935000Y-97140001I0J249999D01*
G01*
X111935000Y-95899999D01*
G75*
G02*
X112184999Y-95650000I249999J0D01*
G01*
X113875001Y-95650000D01*
G75*
G02*
X114125000Y-95899999I0J-249999D01*
G01*
X114125000Y-97140001D01*
G75*
G02*
X113875001Y-97390000I-249999J0D01*
G01*
G37*
D18*
X113030000Y-93980000D03*
%TD*%
D11*
%TO.C,UIn1*%
X97790000Y-102870000D03*
D12*
X105410000Y-102870000D03*
%TD*%
%TO.C,Uout1*%
X105410000Y-113030000D03*
D11*
X97790000Y-113030000D03*
%TD*%
M02*
